<?xml version="1.0" encoding="utf-8"?>
<!-- Generator: Adobe Illustrator 23.1.1, SVG Export Plug-In . SVG Version: 6.00 Build 0)  -->
<svg version="1.1" id="Layer_1" xmlns="http://www.w3.org/2000/svg" xmlns:xlink="http://www.w3.org/1999/xlink" x="0px" y="0px"
	 viewBox="0 0 1698 519" style="enable-background:new 0 0 1698 519;" xml:space="preserve">
<style type="text/css">
	.st0{fill:#313131;}
</style>
<g>
	<g id="Group_1" transform="translate(52.12 36.891)">
		<path id="Path_1" class="st0" d="M544.1,469.1c0,1.2,0.9,2.1,2.1,2.1h44.6c1.2,0,2.1-0.9,2.1-2.1V463c0-1.2-1-2.1-2.1-2.1h-35.3
			v-24h29.8c1.2,0,2.1-0.9,2.1-2.1v-6.3c-0.1-1.1-1-2-2.1-2.1h-29.8v-22.8h35.3c1.2,0,2.1-0.9,2.1-2.1v-6.3c0-1.2-1-2.1-2.1-2.1
			h-44.6c-1.1,0-2.1,0.9-2.1,2.1V469.1z M658.1,471.1c0.4,0.7,1.1,1.2,1.9,1.2h1.1c0.8,0,1.5-0.5,1.9-1.2l34.3-75.1
			c0.5-1,0.2-2.2-0.8-2.7c-0.3-0.2-0.7-0.3-1.1-0.2h-7.9c-0.8,0-1.6,0.5-1.9,1.2L661,449.5h-0.7l-24.6-55.2
			c-0.4-0.7-1.1-1.2-1.9-1.2H626c-1.1-0.1-2,0.7-2.1,1.8c0,0.4,0,0.8,0.2,1.1L658.1,471.1z M733.1,469.1c0,1.2,0.9,2.1,2.1,2.1h44.6
			c1.2,0,2.1-0.9,2.1-2.1V463c0-1.2-1-2.1-2.1-2.1h-35.3v-24h29.8c1.2,0,2.1-0.9,2.1-2.1v-6.3c-0.1-1.1-1-2-2.1-2.1h-29.8v-22.8
			h35.3c1.2,0,2.1-0.9,2.1-2.1v-6.3c0-1.2-1-2.1-2.1-2.1h-44.6c-1.2,0-2.1,0.9-2.1,2.1V469.1z M823.4,469.1c0.1,1.1,1,2,2.1,2.1h7
			c1.2,0,2.1-0.9,2.1-2.1v-54.4h0.1l48.4,57.6h2.9c1.1,0,2.1-0.9,2.1-2v-75.1c-0.1-1.1-1-2.1-2.1-2.1H879c-1.2,0-2.1,1-2.1,2.1V448
			h-0.1l-48.4-56h-2.8c-1.1,0-2.1,0.9-2.1,2L823.4,469.1z M945.2,469.1c0.1,1.1,1,2.1,2.1,2.1h7.4c1.1-0.1,2.1-1,2.1-2.1v-65.5H975
			c1.1,0,2.1-0.9,2.1-2.1v-6.3c0-1.2-1-2.1-2.1-2.1h-48c-1.2,0-2.1,0.9-2.1,2.1v6.3c0,1.2,0.9,2.1,2.1,2.1h18.2V469.1z
			 M1009.4,463.5c6.7,5.7,15.2,8.9,24,8.8c12.5,1.2,23.6-8,24.8-20.5c0-0.2,0-0.4,0-0.6c0-13.6-11.1-19.8-24-25
			c-9.3-3.8-14.2-7.7-14.2-14.1c0-4.1,3.2-10.1,12.6-10.1c5.4,0.7,10.6,2.6,15.1,5.6c1.2,0.8,2.8,0.5,3.7-0.7
			c0.1-0.1,0.2-0.3,0.2-0.4c0.9-1.3,1.9-2.9,2.8-4.2c0.9-1.2,0.6-2.8-0.5-3.7c0,0-0.1-0.1-0.1-0.1c-6.1-4.2-13.4-6.5-20.8-6.6
			c-11.9-1.5-22.8,7-24.3,18.9c-0.1,0.6-0.1,1.1-0.1,1.7c0,12.9,8.9,18.9,20.3,23.7c11.1,4.6,16.9,8.8,16.9,15.5
			c-0.4,6.2-5.8,10.9-12,10.5c-0.2,0-0.4,0-0.6-0.1c-6.6-0.7-12.8-3.4-17.8-7.7c-1.1-0.9-2.7-0.7-3.5,0.4c-0.1,0.1-0.2,0.3-0.3,0.5
			c-1,1.5-1.9,3.1-2.9,4.6c-0.8,1-0.7,2.5,0.3,3.3C1009.1,463.3,1009.2,463.4,1009.4,463.5"/>
	</g>
	<g id="Group_2" transform="translate(0 6.398)">
		<path id="Path_2" class="st0" d="M9,333.3v-83.3h4.6c4,17.2,10.7,33.7,20,48.8c14.6,22.1,31.7,33.2,51.3,33.2
			c11.4,0.2,22.4-3.8,31.1-11.2c9.8-8.9,15-21.8,14.3-35c0.2-11.6-3.4-23-10.3-32.4c-4.1-5.2-9-9.7-14.4-13.5
			c-9.4-6.3-19.2-12.1-29.2-17.4c-17.5-8.6-33.6-19.7-47.9-32.9c-11.1-11.8-17.3-27.4-17.1-43.6c-0.3-16.8,5.8-33.1,17.1-45.6
			C41.8,86,60.9,78.1,80.7,78.9c9.3-0.1,18.5,1.7,27.1,5.3l9.7,4.4c2.5,1.1,5.3,1.6,8,1.7c3.6,0,7.1-2.9,10.3-8.8h5.7l3.1,66.8h-6
			c-1.6-7.7-3.8-15.3-6.7-22.7c-2.6-6-6-11.5-10.1-16.5c-5.6-7.2-12.5-13.1-20.5-17.5c-7-4-15-6.2-23.1-6.3
			C68,85.3,58.1,89.6,51.1,97.3c-7.5,7.9-11.5,18.4-11.3,29.3c0,9.6,3.6,18.9,10.1,26c8.8,9.2,19.4,16.4,31.2,21.3l30.2,14.1
			c16,6.8,30,17.6,40.5,31.4c9.1,13,13.8,28.6,13.4,44.4c0.6,19-6.4,37.4-19.4,51.2c-14.8,15.7-35.6,24.3-57.1,23.6
			c-13.1-0.1-26.1-2.7-38.3-7.7c-8.4-3.4-13.4-5.3-15.1-5.7c-2.1-0.5-4.4-0.8-6.6-0.7c-6.3-0.2-12.2,3.2-15.1,8.8L9,333.3z"/>
	</g>
	<g id="Group_3" transform="translate(17.476 6.398)">
		<path id="Path_3" class="st0" d="M363.9,161.8c-0.4-15.7-4-31.1-10.5-45.3c-4.8-9.2-11.8-17-20.5-22.7c-8.1-5.4-17.6-8.4-27.3-8.4
			c-16.9,0.3-32.7,8.3-42.8,21.8c-12.7,15.6-20.2,34.7-21.7,54.7H363.9z M239.3,173.3c-0.8,9.6-1.1,16.6-1.1,20.9
			c0,16.9,2.4,33.8,7.3,50c4,14.6,10.7,28.4,19.8,40.6c8.5,10.9,19.3,19.8,31.7,25.9c12.3,6.2,25.9,9.4,39.7,9.4
			c10,0,19.9-1.7,29.2-5.3c8.6-3.1,16.4-8.1,22.9-14.6c8.3-9.5,14.4-20.8,17.7-33l6,2.1c-3.6,20.7-15,39.3-31.9,51.9
			c-19.3,12.5-42,18.7-65,17.6c-20.7,0.5-41.3-3.4-60.3-11.5c-17-7.9-31.7-20-42.6-35.3c-16.7-23.9-25.2-52.6-24.2-81.8
			c-1.9-39.9,15.2-78.4,46-103.9c21.4-17.9,48.4-27.6,76.3-27.3c14.5-0.1,28.9,2.7,42.3,8.4c12.7,5.4,24,13.7,32.9,24.3
			c14.2,17.4,21.6,39.4,20.8,61.8H239.3z"/>
	</g>
	<g id="Group_4" transform="translate(38.983 6.788)">
		<path id="Path_4" class="st0" d="M409.2,82.9h110.9v6.5c-6,0.9-11.8,2.9-17.1,5.9c-6.2,4.2-9.7,11.3-9.1,18.8
			c0.1,6.3,1.1,12.5,2.9,18.5c1.9,7.1,5.4,17.3,10.5,30.9l46.1,120.8l46.6-125.8c5.6-13.2,9.1-27.2,10.3-41.4
			c0.7-8.1-2.6-16.1-8.9-21.4c-5.2-3.2-10.9-5.3-16.9-6.2v-6.5h78.9v6.5c-9.8,2.2-18.8,7.3-25.7,14.6c-12.5,16.8-22,35.6-28.3,55.5
			l-66,173.3h-15.4l-71.7-182.1c-6.1-17.7-14-34.8-23.7-50.8c-2.4-2.9-5.4-5.3-8.9-6.9c-4.6-1.8-9.4-3-14.3-3.7V82.9z"/>
	</g>
	<g id="Group_5" transform="translate(62.393 6.398)">
		<path id="Path_5" class="st0" d="M825,161.8c-0.4-15.7-4-31.1-10.5-45.3c-4.8-9.2-11.8-17-20.5-22.7c-8.1-5.4-17.6-8.4-27.3-8.4
			c-16.9,0.3-32.7,8.3-42.8,21.8c-12.7,15.6-20.3,34.7-21.8,54.7H825z M700.5,173.3c-0.8,9.6-1.1,16.6-1.1,20.9
			c0,16.9,2.4,33.8,7.3,50c4,14.6,10.7,28.4,19.8,40.6c8.5,10.9,19.3,19.8,31.7,25.9c12.3,6.2,25.9,9.4,39.7,9.4
			c10,0,19.9-1.7,29.2-5.3c8.6-3.1,16.4-8.1,22.9-14.6c8.3-9.5,14.3-20.8,17.7-33l6,2.1c-3.6,20.7-15,39.3-31.9,51.9
			c-19.3,12.5-42,18.6-65,17.5c-20.7,0.5-41.3-3.4-60.3-11.5c-17-7.9-31.7-20-42.6-35.3c-16.7-23.9-25.2-52.6-24.2-81.8
			c-1.9-39.9,15.2-78.4,46-103.9C717,88.3,744,78.7,771.9,78.9c14.5-0.1,28.9,2.7,42.3,8.4c12.7,5.4,24,13.7,32.9,24.3
			c14.2,17.4,21.6,39.4,20.8,61.8H700.5z"/>
	</g>
	<g id="Group_6" transform="translate(84.941 6.398)">
		<path id="Path_6" class="st0" d="M962.5,78.9c2.6,10.5,3.9,21.2,4,31.9v4.7c21.6-23.6,52.3-36.9,84.3-36.7
			c21.1-1,41.8,5.2,58.9,17.6c14.8,12,23,30.3,22,49.4v124.5c-0.3,9.8,0.4,19.6,2.3,29.2c1.4,5.9,4.5,11.3,8.9,15.4
			c8.5,6.7,18.7,10.8,29.4,12.1v6.2h-126.3v-6.2c8.5-0.7,16.8-3,24.6-6.6c5.5-3.4,9.7-8.5,12-14.5c2.6-6.5,4.1-13.4,4.4-20.4
			c0.9-9.1,1.3-22.2,1.3-39.2v-62.2c0.3-15.7-0.4-31.4-2.1-47c-0.9-8.5-3.7-16.7-8.1-24.1c-4.6-7-11.1-12.6-18.8-16
			c-8.5-3.9-17.7-5.9-27-5.7c-10.3-0.1-20.5,2.1-29.8,6.5c-8.7,3.9-16.2,10-21.8,17.6c-5.7,7.9-9.6,17-11.3,26.6
			c-2.2,16.3-3.1,32.8-2.7,49.2v57.6l0.3,21.7c-0.3,9.8,0.4,19.6,2.3,29.2c1.4,5.9,4.5,11.3,8.9,15.4c8.5,6.7,18.7,10.9,29.4,12.1
			v6.2H881.1v-6.2c8.5-0.7,16.8-3,24.6-6.6c5.4-3.4,9.7-8.5,12-14.5c2.5-6.5,4-13.3,4.4-20.3c0.9-9.1,1.3-22.2,1.3-39.4v-72.4
			c0.2-14.1-0.2-28.2-1.4-42.2c-0.6-7-2.7-13.7-6.3-19.8c-2.7-5-6.8-9.1-11.7-11.9c-6.2-2.8-12.9-4.4-19.7-4.5v-6.2L962.5,78.9z"/>
	</g>
	<g id="Group_7" transform="translate(111.977)">
		<path id="Path_7" class="st0" d="M1232.7,89.7h72.6v11.2h-72.6v171.2c-1.3,15.4,2.2,30.9,10.2,44.1c3.7,5,8.6,8.9,14.3,11.5
			c6,2.8,12.5,4.2,19.1,4.1c7.5,0.3,14.9-1.6,21.4-5.4c7.4-5.4,13.8-12.2,18.8-19.9l4.3,3.8c-5.8,11.3-15.1,20.5-26.4,26.2
			c-13.3,6.1-27.8,9-42.4,8.6c-17.5,1.5-34.9-3.3-49.1-13.5c-5.3-4.4-9.1-10.3-10.9-16.9c-2.2-11.7-3-23.6-2.6-35.5V100.9h-30.6
			v-4.7c13.3-4.8,25.2-13,34.3-23.8c5.9-6.6,11-13.9,15.3-21.6c4.5-8.9,8.2-18.2,10.9-27.8l2.9-9.7h10.6V89.7z"/>
	</g>
	<g id="Group_8" transform="translate(128.096 6.398)">
		<path id="Path_8" class="st0" d="M1464.4,188.9c-10.4,8.9-21.8,16.7-33.9,23.3c-9.9,5.2-19.5,11-28.8,17.3
			c-5.4,4.1-10.3,8.8-14.5,14.1c-8.9,11.3-13.6,25.3-13.4,39.7c-0.5,11.6,3.2,23,10.4,32.1c6.3,8.1,16.1,12.8,26.3,12.6
			c9.5-0.1,18.8-3.2,26.4-9c8.3-6.1,14.8-14.4,18.7-24c6.7-18.2,9.7-37.6,8.8-57.1V188.9z M1559,304.8l4.9,2.9
			c-6.9,20.6-22.6,30.9-47.2,30.9c-12.1,0.5-24-3.2-33.8-10.3c-7.6-6.6-13.8-14.6-18.3-23.5c-8.8,8.7-18.5,16.4-28.9,23.2
			c-13.2,7.3-28.1,10.9-43.2,10.6c-18,1-35.7-4.6-49.9-15.6c-12.3-10.4-19.1-25.9-18.5-42.1c-0.5-15.1,4.9-29.7,15.1-40.9
			c5.6-6,12.3-11,19.7-14.6c10.4-4.7,21.2-8.4,32.3-11c16.6-4.3,28.8-7.9,36.7-10.9c7.1-2.5,13.8-6.1,19.8-10.6
			c5.7-3.9,10-9.5,12.6-15.9c2.6-8.2,3.8-16.7,3.4-25.3c1.4-17.7-3-35.3-12.6-50.3c-3.9-5-9-9.1-14.7-11.8
			c-5.8-2.9-12.2-4.4-18.7-4.4c-7.4-0.1-14.7,2-20.9,6.2c-6.2,4.2-10.9,10.1-13.7,17.1l-7.1,17.1c-3,8.7-11.4,14.3-20.6,13.8
			c-6.1,0.2-12-2.2-16.3-6.6c-4.4-4.4-6.7-10.4-6.5-16.6c0-10,6.9-18.4,20.6-25.3c8.8-4,18.1-6.9,27.6-8.7
			c10.6-2.2,21.4-3.3,32.2-3.4c12.5,0.1,24.8,1.6,36.9,4.7c11.2,2.5,22,6.6,32.1,12.1c11.3,5.9,19.6,16.1,23.2,28.3
			c1.9,9.8,2.6,19.8,2.3,29.7v108.8c-0.4,12.6,0.3,25.2,2.3,37.7c1.1,12,11.4,21.2,23.4,20.9c4.8,0.3,9.6-0.9,13.9-3.2
			C1551.8,314.2,1555.8,309.8,1559,304.8"/>
	</g>
</g>
</svg>
