<?xml version="1.0" encoding="utf-8"?>
<!-- Generator: Adobe Illustrator 23.1.1, SVG Export Plug-In . SVG Version: 6.00 Build 0)  -->
<svg version="1.1" id="Layer_1" xmlns="http://www.w3.org/2000/svg" xmlns:xlink="http://www.w3.org/1999/xlink" x="0px" y="0px"
	 viewBox="0 0 1698 519" style="enable-background:new 0 0 1698 519;" xml:space="preserve">
<style type="text/css">
	.st0{fill:#313131;}
</style>
<g>
	<g id="Group_5" transform="translate(62.393 6.398)">
		<path id="Path_5" class="st0" d="M825,161.8c-0.4-15.7-4-31.1-10.5-45.3c-4.8-9.2-11.8-17-20.5-22.7c-8.1-5.4-17.6-8.4-27.3-8.4
			c-16.9,0.3-32.7,8.3-42.8,21.8c-12.7,15.6-20.3,34.7-21.8,54.7H825z M700.5,173.3c-0.8,9.6-1.1,16.6-1.1,20.9
			c0,16.9,2.4,33.8,7.3,50c4,14.6,10.7,28.4,19.8,40.6c8.5,10.9,19.3,19.8,31.7,25.9c12.3,6.2,25.9,9.4,39.7,9.4
			c10,0,19.9-1.7,29.2-5.3c8.6-3.1,16.4-8.1,22.9-14.6c8.3-9.5,14.3-20.8,17.7-33l6,2.1c-3.6,20.7-15,39.3-31.9,51.9
			c-19.3,12.5-42,18.6-65,17.5c-20.7,0.5-41.3-3.4-60.3-11.5c-17-7.9-31.7-20-42.6-35.3c-16.7-23.9-25.2-52.6-24.2-81.8
			c-1.9-39.9,15.2-78.4,46-103.9C717,88.3,744,78.7,771.9,78.9c14.5-0.1,28.9,2.7,42.3,8.4c12.7,5.4,24,13.7,32.9,24.3
			c14.2,17.4,21.6,39.4,20.8,61.8H700.5z"/>
	</g>
</g>
</svg>
