<?xml version="1.0" encoding="utf-8"?>
<!-- Generator: Adobe Illustrator 23.1.1, SVG Export Plug-In . SVG Version: 6.00 Build 0)  -->
<svg version="1.1" id="Layer_1" xmlns="http://www.w3.org/2000/svg" xmlns:xlink="http://www.w3.org/1999/xlink" x="0px" y="0px"
	 viewBox="0 0 1698 519" style="enable-background:new 0 0 1698 519;" xml:space="preserve">
<style type="text/css">
	.st0{fill:#313131;}
</style>
<g>
	<g id="Group_4" transform="translate(38.983 6.788)">
		<path id="Path_4" class="st0" d="M409.2,82.9h110.9v6.5c-6,0.9-11.8,2.9-17.1,5.9c-6.2,4.2-9.7,11.3-9.1,18.8
			c0.1,6.3,1.1,12.5,2.9,18.5c1.9,7.1,5.4,17.3,10.5,30.9l46.1,120.8l46.6-125.8c5.6-13.2,9.1-27.2,10.3-41.4
			c0.7-8.1-2.6-16.1-8.9-21.4c-5.2-3.2-10.9-5.3-16.9-6.2v-6.5h78.9v6.5c-9.8,2.2-18.8,7.3-25.7,14.6c-12.5,16.8-22,35.6-28.3,55.5
			l-66,173.3h-15.4l-71.7-182.1c-6.1-17.7-14-34.8-23.7-50.8c-2.4-2.9-5.4-5.3-8.9-6.9c-4.6-1.8-9.4-3-14.3-3.7V82.9z"/>
	</g>
</g>
</svg>
