<?xml version="1.0" encoding="utf-8"?>
<!-- Generator: Adobe Illustrator 23.1.1, SVG Export Plug-In . SVG Version: 6.00 Build 0)  -->
<svg version="1.1" id="Layer_1" xmlns="http://www.w3.org/2000/svg" xmlns:xlink="http://www.w3.org/1999/xlink" x="0px" y="0px"
	 viewBox="0 0 1698 519" style="enable-background:new 0 0 1698 519;" xml:space="preserve">
<style type="text/css">
	.st0{fill:#313131;}
</style>
<g>
	<g id="Group_6" transform="translate(84.941 6.398)">
		<path id="Path_6" class="st0" d="M962.5,78.9c2.6,10.5,3.9,21.2,4,31.9v4.7c21.6-23.6,52.3-36.9,84.3-36.7
			c21.1-1,41.8,5.2,58.9,17.6c14.8,12,23,30.3,22,49.4v124.5c-0.3,9.8,0.4,19.6,2.3,29.2c1.4,5.9,4.5,11.3,8.9,15.4
			c8.5,6.7,18.7,10.8,29.4,12.1v6.2h-126.3v-6.2c8.5-0.7,16.8-3,24.6-6.6c5.5-3.4,9.7-8.5,12-14.5c2.6-6.5,4.1-13.4,4.4-20.4
			c0.9-9.1,1.3-22.2,1.3-39.2v-62.2c0.3-15.7-0.4-31.4-2.1-47c-0.9-8.5-3.7-16.7-8.1-24.1c-4.6-7-11.1-12.6-18.8-16
			c-8.5-3.9-17.7-5.9-27-5.7c-10.3-0.1-20.5,2.1-29.8,6.5c-8.7,3.9-16.2,10-21.8,17.6c-5.7,7.9-9.6,17-11.3,26.6
			c-2.2,16.3-3.1,32.8-2.7,49.2v57.6l0.3,21.7c-0.3,9.8,0.4,19.6,2.3,29.2c1.4,5.9,4.5,11.3,8.9,15.4c8.5,6.7,18.7,10.9,29.4,12.1
			v6.2H881.1v-6.2c8.5-0.7,16.8-3,24.6-6.6c5.4-3.4,9.7-8.5,12-14.5c2.5-6.5,4-13.3,4.4-20.3c0.9-9.1,1.3-22.2,1.3-39.4v-72.4
			c0.2-14.1-0.2-28.2-1.4-42.2c-0.6-7-2.7-13.7-6.3-19.8c-2.7-5-6.8-9.1-11.7-11.9c-6.2-2.8-12.9-4.4-19.7-4.5v-6.2L962.5,78.9z"/>
	</g>
</g>
</svg>
