<?xml version="1.0" encoding="utf-8"?>
<!-- Generator: Adobe Illustrator 23.1.1, SVG Export Plug-In . SVG Version: 6.00 Build 0)  -->
<svg version="1.1" id="Layer_1" xmlns="http://www.w3.org/2000/svg" xmlns:xlink="http://www.w3.org/1999/xlink" x="0px" y="0px"
	 viewBox="0 0 1698 519" style="enable-background:new 0 0 1698 519;" xml:space="preserve">
<style type="text/css">
	.st0{fill:#313131;}
</style>
<g>
	<g id="Group_7" transform="translate(111.977)">
		<path id="Path_7" class="st0" d="M1232.7,89.7h72.6v11.2h-72.6v171.2c-1.3,15.4,2.2,30.9,10.2,44.1c3.7,5,8.6,8.9,14.3,11.5
			c6,2.8,12.5,4.2,19.1,4.1c7.5,0.3,14.9-1.6,21.4-5.4c7.4-5.4,13.8-12.2,18.8-19.9l4.3,3.8c-5.8,11.3-15.1,20.5-26.4,26.2
			c-13.3,6.1-27.8,9-42.4,8.6c-17.5,1.5-34.9-3.3-49.1-13.5c-5.3-4.4-9.1-10.3-10.9-16.9c-2.2-11.7-3-23.6-2.6-35.5V100.9h-30.6
			v-4.7c13.3-4.8,25.2-13,34.3-23.8c5.9-6.6,11-13.9,15.3-21.6c4.5-8.9,8.2-18.2,10.9-27.8l2.9-9.7h10.6V89.7z"/>
	</g>
</g>
</svg>
