<?xml version="1.0" encoding="utf-8"?>
<!-- Generator: Adobe Illustrator 23.1.1, SVG Export Plug-In . SVG Version: 6.00 Build 0)  -->
<svg version="1.1" id="Layer_1" xmlns="http://www.w3.org/2000/svg" xmlns:xlink="http://www.w3.org/1999/xlink" x="0px" y="0px"
	 viewBox="0 0 1698 519" style="enable-background:new 0 0 1698 519;" xml:space="preserve">
<style type="text/css">
	.st0{fill:#313131;}
</style>
<g>
	<g id="Group_1" transform="translate(52.12 36.891)">
		<path id="Path_1" class="st0" d="M544.1,469.1c0,1.2,0.9,2.1,2.1,2.1h44.6c1.2,0,2.1-0.9,2.1-2.1V463c0-1.2-1-2.1-2.1-2.1h-35.3
			v-24h29.8c1.2,0,2.1-0.9,2.1-2.1v-6.3c-0.1-1.1-1-2-2.1-2.1h-29.8v-22.8h35.3c1.2,0,2.1-0.9,2.1-2.1v-6.3c0-1.2-1-2.1-2.1-2.1
			h-44.6c-1.1,0-2.1,0.9-2.1,2.1V469.1z M658.1,471.1c0.4,0.7,1.1,1.2,1.9,1.2h1.1c0.8,0,1.5-0.5,1.9-1.2l34.3-75.1
			c0.5-1,0.2-2.2-0.8-2.7c-0.3-0.2-0.7-0.3-1.1-0.2h-7.9c-0.8,0-1.6,0.5-1.9,1.2L661,449.5h-0.7l-24.6-55.2
			c-0.4-0.7-1.1-1.2-1.9-1.2H626c-1.1-0.1-2,0.7-2.1,1.8c0,0.4,0,0.8,0.2,1.1L658.1,471.1z M733.1,469.1c0,1.2,0.9,2.1,2.1,2.1h44.6
			c1.2,0,2.1-0.9,2.1-2.1V463c0-1.2-1-2.1-2.1-2.1h-35.3v-24h29.8c1.2,0,2.1-0.9,2.1-2.1v-6.3c-0.1-1.1-1-2-2.1-2.1h-29.8v-22.8
			h35.3c1.2,0,2.1-0.9,2.1-2.1v-6.3c0-1.2-1-2.1-2.1-2.1h-44.6c-1.2,0-2.1,0.9-2.1,2.1V469.1z M823.4,469.1c0.1,1.1,1,2,2.1,2.1h7
			c1.2,0,2.1-0.9,2.1-2.1v-54.4h0.1l48.4,57.6h2.9c1.1,0,2.1-0.9,2.1-2v-75.1c-0.1-1.1-1-2.1-2.1-2.1H879c-1.2,0-2.1,1-2.1,2.1V448
			h-0.1l-48.4-56h-2.8c-1.1,0-2.1,0.9-2.1,2L823.4,469.1z M945.2,469.1c0.1,1.1,1,2.1,2.1,2.1h7.4c1.1-0.1,2.1-1,2.1-2.1v-65.5H975
			c1.1,0,2.1-0.9,2.1-2.1v-6.3c0-1.2-1-2.1-2.1-2.1h-48c-1.2,0-2.1,0.9-2.1,2.1v6.3c0,1.2,0.9,2.1,2.1,2.1h18.2V469.1z
			 M1009.4,463.5c6.7,5.7,15.2,8.9,24,8.8c12.5,1.2,23.6-8,24.8-20.5c0-0.2,0-0.4,0-0.6c0-13.6-11.1-19.8-24-25
			c-9.3-3.8-14.2-7.7-14.2-14.1c0-4.1,3.2-10.1,12.6-10.1c5.4,0.7,10.6,2.6,15.1,5.6c1.2,0.8,2.8,0.5,3.7-0.7
			c0.1-0.1,0.2-0.3,0.2-0.4c0.9-1.3,1.9-2.9,2.8-4.2c0.9-1.2,0.6-2.8-0.5-3.7c0,0-0.1-0.1-0.1-0.1c-6.1-4.2-13.4-6.5-20.8-6.6
			c-11.9-1.5-22.8,7-24.3,18.9c-0.1,0.6-0.1,1.1-0.1,1.7c0,12.9,8.9,18.9,20.3,23.7c11.1,4.6,16.9,8.8,16.9,15.5
			c-0.4,6.2-5.8,10.9-12,10.5c-0.2,0-0.4,0-0.6-0.1c-6.6-0.7-12.8-3.4-17.8-7.7c-1.1-0.9-2.7-0.7-3.5,0.4c-0.1,0.1-0.2,0.3-0.3,0.5
			c-1,1.5-1.9,3.1-2.9,4.6c-0.8,1-0.7,2.5,0.3,3.3C1009.1,463.3,1009.2,463.4,1009.4,463.5"/>
	</g>
</g>
</svg>
