<?xml version="1.0" encoding="utf-8"?>
<!-- Generator: Adobe Illustrator 23.1.1, SVG Export Plug-In . SVG Version: 6.00 Build 0)  -->
<svg version="1.1" id="Layer_1" xmlns="http://www.w3.org/2000/svg" xmlns:xlink="http://www.w3.org/1999/xlink" x="0px" y="0px"
	 viewBox="0 0 1698 519" style="enable-background:new 0 0 1698 519;" xml:space="preserve">
<style type="text/css">
	.st0{fill:#313131;}
</style>
<g>
	<g id="Group_8" transform="translate(128.096 6.398)">
		<path id="Path_8" class="st0" d="M1464.4,188.9c-10.4,8.9-21.8,16.7-33.9,23.3c-9.9,5.2-19.5,11-28.8,17.3
			c-5.4,4.1-10.3,8.8-14.5,14.1c-8.9,11.3-13.6,25.3-13.4,39.7c-0.5,11.6,3.2,23,10.4,32.1c6.3,8.1,16.1,12.8,26.3,12.6
			c9.5-0.1,18.8-3.2,26.4-9c8.3-6.1,14.8-14.4,18.7-24c6.7-18.2,9.7-37.6,8.8-57.1V188.9z M1559,304.8l4.9,2.9
			c-6.9,20.6-22.6,30.9-47.2,30.9c-12.1,0.5-24-3.2-33.8-10.3c-7.6-6.6-13.8-14.6-18.3-23.5c-8.8,8.7-18.5,16.4-28.9,23.2
			c-13.2,7.3-28.1,10.9-43.2,10.6c-18,1-35.7-4.6-49.9-15.6c-12.3-10.4-19.1-25.9-18.5-42.1c-0.5-15.1,4.9-29.7,15.1-40.9
			c5.6-6,12.3-11,19.7-14.6c10.4-4.7,21.2-8.4,32.3-11c16.6-4.3,28.8-7.9,36.7-10.9c7.1-2.5,13.8-6.1,19.8-10.6
			c5.7-3.9,10-9.5,12.6-15.9c2.6-8.2,3.8-16.7,3.4-25.3c1.4-17.7-3-35.3-12.6-50.3c-3.9-5-9-9.1-14.7-11.8
			c-5.8-2.9-12.2-4.4-18.7-4.4c-7.4-0.1-14.7,2-20.9,6.2c-6.2,4.2-10.9,10.1-13.7,17.1l-7.1,17.1c-3,8.7-11.4,14.3-20.6,13.8
			c-6.1,0.2-12-2.2-16.3-6.6c-4.4-4.4-6.7-10.4-6.5-16.6c0-10,6.9-18.4,20.6-25.3c8.8-4,18.1-6.9,27.6-8.7
			c10.6-2.2,21.4-3.3,32.2-3.4c12.5,0.1,24.8,1.6,36.9,4.7c11.2,2.5,22,6.6,32.1,12.1c11.3,5.9,19.6,16.1,23.2,28.3
			c1.9,9.8,2.6,19.8,2.3,29.7v108.8c-0.4,12.6,0.3,25.2,2.3,37.7c1.1,12,11.4,21.2,23.4,20.9c4.8,0.3,9.6-0.9,13.9-3.2
			C1551.8,314.2,1555.8,309.8,1559,304.8"/>
	</g>
</g>
</svg>
