<?xml version="1.0" encoding="utf-8"?>
<!-- Generator: Adobe Illustrator 23.0.6, SVG Export Plug-In . SVG Version: 6.00 Build 0)  -->
<svg version="1.1" id="Layer_1" xmlns="http://www.w3.org/2000/svg" xmlns:xlink="http://www.w3.org/1999/xlink" x="0px" y="0px"
	 viewBox="0 0 95 30" style="enable-background:new 0 0 95 30;" xml:space="preserve">
<style type="text/css">
	.st0{fill:#1A1A1A;}
</style>
<g>
	<path class="st0" d="M56.5,24.2h-2.6c-0.1,0-0.1,0.1-0.1,0.1v0.3c0,0.1,0,0.1,0.1,0.1h1v3.5c0,0.1,0.1,0.1,0.1,0.1h0.4
		c0.1,0,0.1-0.1,0.1-0.1v-3.5h1c0.1,0,0.1-0.1,0.1-0.1v-0.3C56.6,24.2,56.6,24.2,56.5,24.2z"/>
	<path class="st0" d="M59.7,26c-0.5-0.2-0.8-0.4-0.8-0.8c0-0.2,0.2-0.5,0.7-0.5c0.3,0,0.8,0.3,0.8,0.3c0.1,0.1,0.2,0,0.2-0.1
		c0-0.1,0.1-0.2,0.1-0.2c0.1-0.1,0-0.2,0-0.2c-0.1,0-0.5-0.4-1.1-0.4c-1,0-1.3,0.6-1.3,1.1c0,0.7,0.5,1,1.1,1.3
		c0.6,0.2,0.9,0.5,0.9,0.8c0,0.3-0.3,0.6-0.7,0.6c-0.5,0-0.9-0.4-1-0.4c-0.1-0.1-0.2,0-0.2,0c-0.1,0.1-0.1,0.2-0.2,0.2
		c-0.1,0.1,0,0.1,0,0.2c0.1,0.1,0.6,0.5,1.3,0.5c0.8,0,1.3-0.5,1.3-1.1C61,26.6,60.4,26.2,59.7,26z"/>
	<path class="st0" d="M51.7,24.2h-0.4c-0.1,0-0.1,0.1-0.1,0.1v2.8h0l-2.6-3h-0.1c-0.1,0-0.1,0-0.1,0.1v4c0,0.1,0.1,0.1,0.1,0.1h0.4
		c0.1,0,0.1-0.1,0.1-0.1v-2.9h0l2.6,3.1h0.2c0.1,0,0.1,0,0.1-0.1v-4C51.8,24.2,51.8,24.2,51.7,24.2z"/>
	<path class="st0" d="M41.5,24.2H41c-0.1,0-0.1,0-0.1,0.1l-1.3,3h0l-1.3-3c0,0-0.1-0.1-0.1-0.1h-0.4c-0.1,0-0.1,0.1-0.1,0.2l1.8,4
		c0,0,0.1,0.1,0.1,0.1h0.1c0,0,0.1,0,0.1-0.1l1.8-4C41.6,24.3,41.6,24.2,41.5,24.2z"/>
	<path class="st0" d="M46,24.2h-2.4c-0.1,0-0.1,0.1-0.1,0.1v4c0,0.1,0,0.1,0.1,0.1H46c0.1,0,0.1-0.1,0.1-0.1v-0.3
		c0-0.1,0-0.1-0.1-0.1h-1.9v-1.3h1.6c0.1,0,0.1,0,0.1-0.1v-0.3c0-0.1-0.1-0.1-0.1-0.1h-1.6v-1.2H46c0.1,0,0.1-0.1,0.1-0.1v-0.3
		C46.1,24.2,46.1,24.2,46,24.2z"/>
	<path class="st0" d="M35.8,24.2h-2.4c-0.1,0-0.1,0.1-0.1,0.1v4c0,0.1,0,0.1,0.1,0.1h2.4c0.1,0,0.1-0.1,0.1-0.1v-0.3
		c0-0.1,0-0.1-0.1-0.1h-1.9v-1.3h1.6c0.1,0,0.1,0,0.1-0.1v-0.3c0-0.1-0.1-0.1-0.1-0.1h-1.6v-1.2h1.9c0.1,0,0.1-0.1,0.1-0.1v-0.3
		C36,24.2,35.9,24.2,35.8,24.2z"/>
	<path class="st0" d="M7.3,11.5l-1.6-0.8C4.9,10.4,4.3,10,4,9.6C3.6,9.2,3.4,8.7,3.4,8.2c0-0.6,0.2-1.1,0.6-1.6C4.4,6.2,4.9,6,5.5,6
		c0.4,0,0.8,0.1,1.2,0.3c0.4,0.2,0.8,0.5,1.1,0.9c0.2,0.3,0.4,0.6,0.5,0.9c0.1,0.3,0.2,0.7,0.4,1.2h0.3L8.9,5.8H8.6
		C8.4,6.1,8.2,6.3,8,6.3c-0.1,0-0.3,0-0.4-0.1L7.1,5.9C6.6,5.7,6.1,5.7,5.6,5.7C4.5,5.7,3.5,6,2.8,6.8C2.2,7.5,1.9,8.3,1.9,9.3
		c0,0.9,0.3,1.7,0.9,2.3c0.4,0.5,1.3,1.1,2.6,1.8c0.7,0.4,1.3,0.7,1.6,0.9c0.3,0.2,0.6,0.5,0.8,0.7c0.4,0.5,0.6,1.1,0.6,1.7
		c0,0.8-0.3,1.4-0.8,1.9c-0.5,0.4-1,0.6-1.7,0.6c-1.1,0-2-0.6-2.8-1.8C2.7,16.8,2.3,16,2,14.9H1.8v4.5H2c0.2-0.3,0.5-0.5,0.8-0.5
		c0.1,0,0.3,0,0.4,0c0.1,0,0.4,0.1,0.8,0.3c0.7,0.3,1.4,0.4,2.1,0.4c1.2,0,2.3-0.4,3.1-1.3c0.7-0.7,1-1.6,1-2.8
		c0-0.9-0.2-1.7-0.7-2.4C9,12.5,8.2,12,7.3,11.5z"/>
	<path class="st0" d="M23.1,17.5c-0.3,0.3-0.7,0.6-1.2,0.8s-1,0.3-1.6,0.3c-0.7,0-1.5-0.2-2.1-0.5c-0.7-0.3-1.2-0.8-1.7-1.4
		c-0.4-0.6-0.8-1.3-1.1-2.2c-0.3-0.9-0.4-1.8-0.4-2.7c0-0.2,0-0.6,0.1-1.1h9c0-1.3-0.4-2.4-1.1-3.3c-0.5-0.6-1.1-1-1.8-1.3
		c-0.7-0.3-1.5-0.5-2.3-0.5c-1.5,0-2.9,0.5-4.1,1.5c-1.6,1.3-2.5,3.2-2.5,5.6c0,1.7,0.4,3.2,1.3,4.4c0.6,0.9,1.4,1.5,2.3,1.9
		s2,0.6,3.2,0.6c1.5,0,2.6-0.3,3.5-0.9c0.9-0.6,1.4-1.6,1.7-2.8l-0.3-0.1C23.8,16.6,23.5,17.2,23.1,17.5z M16.3,7.2
		C17,6.4,17.8,6,18.6,6c0.5,0,1,0.2,1.5,0.5s0.8,0.7,1.1,1.2c0.3,0.6,0.5,1.4,0.6,2.4h-6.6C15.3,8.9,15.7,8,16.3,7.2z"/>
	<path class="st0" d="M39,6.2V5.9h-4.2v0.3c0.4,0.1,0.7,0.2,0.9,0.3c0.3,0.2,0.5,0.6,0.5,1.2c0,0.5-0.2,1.2-0.6,2.2l-2.5,6.8
		l-2.5-6.5c-0.3-0.7-0.5-1.3-0.6-1.7c-0.1-0.4-0.2-0.7-0.2-1c0-0.5,0.2-0.8,0.5-1c0.2-0.1,0.5-0.2,0.9-0.3V5.9h-6v0.3
		c0.3,0.1,0.6,0.1,0.8,0.2c0.2,0.1,0.3,0.2,0.5,0.4c0.3,0.3,0.7,1.2,1.3,2.7l3.9,9.8h0.8l3.5-9.3c0.6-1.5,1.1-2.5,1.5-3
		C38,6.7,38.5,6.4,39,6.2z"/>
	<path class="st0" d="M51.6,15.9l-0.3-0.1c-0.3,0.8-0.6,1.4-1,1.8c-0.3,0.3-0.7,0.6-1.2,0.8s-1,0.3-1.6,0.3c-0.7,0-1.5-0.2-2.1-0.5
		c-0.7-0.3-1.2-0.8-1.7-1.4c-0.5-0.6-0.8-1.3-1.1-2.2c-0.3-0.9-0.4-1.8-0.4-2.7c0-0.2,0-0.6,0.1-1.1h9c0-1.3-0.4-2.4-1.1-3.3
		c-0.5-0.6-1.1-1-1.8-1.3c-0.7-0.3-1.5-0.5-2.3-0.5c-1.5,0-2.9,0.5-4.1,1.5c-1.6,1.3-2.5,3.2-2.5,5.6c0,1.7,0.4,3.2,1.3,4.4
		c0.6,0.9,1.4,1.5,2.3,1.9s2,0.6,3.2,0.6c1.5,0,2.6-0.3,3.5-0.9C50.8,18,51.3,17.1,51.6,15.9z M43.5,7.2C44.2,6.4,45,6,45.9,6
		c0.5,0,1,0.2,1.5,0.5c0.5,0.3,0.8,0.7,1.1,1.2c0.3,0.6,0.5,1.4,0.6,2.4h-6.6C42.5,8.9,42.9,8,43.5,7.2z"/>
	<path class="st0" d="M66.8,17.5c-0.1-0.3-0.1-0.9-0.1-1.6V9.3c0-1.1-0.4-2-1.2-2.7c-0.8-0.6-1.9-0.9-3.2-0.9c-1.8,0-3.3,0.7-4.5,2
		V7.4c0-0.5-0.1-1.1-0.2-1.7l-4.2,0.6v0.3c0.5,0,0.8,0.1,1.1,0.2c0.2,0.1,0.5,0.3,0.6,0.6c0.2,0.3,0.3,0.6,0.3,1.1
		c0.1,0.4,0.1,1.2,0.1,2.3v3.9c0,0.9,0,1.6-0.1,2.1c0,0.5-0.1,0.9-0.2,1.1c-0.2,0.4-0.4,0.6-0.6,0.8c-0.3,0.2-0.7,0.3-1.3,0.4v0.3
		H60V19c-0.8-0.1-1.3-0.4-1.6-0.6c-0.2-0.2-0.4-0.5-0.5-0.8c-0.1-0.3-0.1-0.9-0.1-1.6l0-1.2v-3.1c0-1.2,0-2.1,0.1-2.6
		c0.1-0.5,0.3-1,0.6-1.4c0.3-0.4,0.7-0.7,1.2-0.9c0.5-0.2,1-0.3,1.6-0.3c0.5,0,1,0.1,1.5,0.3c0.4,0.2,0.8,0.5,1,0.9
		c0.2,0.3,0.4,0.8,0.4,1.3c0.1,0.5,0.1,1.4,0.1,2.5v3.3c0,0.9,0,1.6-0.1,2.1c0,0.5-0.1,0.9-0.2,1.1c-0.2,0.4-0.4,0.6-0.6,0.8
		c-0.3,0.2-0.7,0.3-1.3,0.4v0.3h6.8V19c-0.8-0.1-1.3-0.4-1.6-0.6C67,18.1,66.9,17.9,66.8,17.5z"/>
	<path class="st0" d="M77.1,18.6c-0.3,0.2-0.7,0.3-1.1,0.3c-0.4,0-0.7-0.1-1-0.2c-0.3-0.1-0.6-0.4-0.8-0.6c-0.4-0.5-0.6-1.3-0.6-2.4
		V6.5h3.9V5.9h-3.9V1.8H73l-0.2,0.5c-0.2,0.6-0.4,1.1-0.6,1.5C72,4.2,71.8,4.6,71.4,5c-0.6,0.6-1.2,1.1-1.8,1.3v0.3h1.6v9.6
		c0,0.9,0,1.6,0.1,1.9c0.1,0.4,0.3,0.7,0.6,0.9c0.6,0.5,1.4,0.7,2.6,0.7c0.9,0,1.7-0.2,2.3-0.5c0.6-0.3,1.1-0.8,1.4-1.4l-0.2-0.2
		C77.7,18.1,77.4,18.4,77.1,18.6z"/>
	<path class="st0" d="M92,17.8c-0.2,0.3-0.5,0.6-0.6,0.7c-0.2,0.1-0.4,0.2-0.7,0.2c-0.7,0-1.1-0.4-1.3-1.1c-0.1-0.4-0.1-1-0.1-2V9.7
		c0-0.7,0-1.3-0.1-1.6c-0.2-0.6-0.6-1.1-1.2-1.5c-0.5-0.3-1-0.5-1.7-0.6c-0.7-0.2-1.3-0.3-2-0.3c-0.6,0-1.1,0.1-1.7,0.2
		c-0.6,0.1-1.1,0.3-1.5,0.5c-0.7,0.4-1.1,0.8-1.1,1.4c0,0.4,0.1,0.7,0.4,0.9c0.2,0.2,0.5,0.4,0.9,0.4c0.5,0,0.9-0.2,1.1-0.7l0.4-0.9
		c0.2-0.4,0.4-0.7,0.7-0.9C83.6,6.1,84,6,84.4,6c0.3,0,0.7,0.1,1,0.2c0.3,0.2,0.6,0.4,0.8,0.6c0.4,0.6,0.7,1.5,0.7,2.7
		c0,0.6-0.1,1-0.2,1.4c-0.1,0.3-0.3,0.6-0.7,0.9c-0.3,0.2-0.6,0.4-1.1,0.6c-0.4,0.2-1.1,0.4-2,0.6c-0.8,0.2-1.3,0.4-1.7,0.6
		c-0.4,0.2-0.8,0.5-1.1,0.8c-0.5,0.6-0.8,1.3-0.8,2.2c0,0.9,0.3,1.7,1,2.3c0.7,0.6,1.6,0.8,2.7,0.8c0.9,0,1.7-0.2,2.3-0.6
		c0.3-0.2,0.9-0.6,1.6-1.2c0.3,0.6,0.7,1,1,1.3c0.5,0.4,1.1,0.6,1.8,0.6c1.3,0,2.2-0.6,2.5-1.7L92,17.8z M86.9,14.2
		c0,1.3-0.2,2.4-0.5,3.1c-0.2,0.5-0.6,1-1,1.3C85,18.9,84.5,19,84,19c-0.6,0-1-0.2-1.4-0.7c-0.4-0.5-0.6-1-0.6-1.7
		c0-0.8,0.2-1.5,0.7-2.1c0.2-0.3,0.5-0.5,0.8-0.8c0.3-0.2,0.8-0.5,1.5-0.9c0.7-0.4,1.3-0.8,1.8-1.2V14.2z"/>
</g>
</svg>
