<?xml version="1.0" encoding="utf-8"?>
<!-- Generator: Adobe Illustrator 23.1.1, SVG Export Plug-In . SVG Version: 6.00 Build 0)  -->
<svg version="1.1" id="Layer_1" xmlns="http://www.w3.org/2000/svg" xmlns:xlink="http://www.w3.org/1999/xlink" x="0px" y="0px"
	 viewBox="0 0 1698 519" style="enable-background:new 0 0 1698 519;" xml:space="preserve">
<style type="text/css">
	.st0{fill:#313131;}
</style>
<g>
	<g id="Group_2" transform="translate(0 6.398)">
		<path id="Path_2" class="st0" d="M9,333.3v-83.3h4.6c4,17.2,10.7,33.7,20,48.8c14.6,22.1,31.7,33.2,51.3,33.2
			c11.4,0.2,22.4-3.8,31.1-11.2c9.8-8.9,15-21.8,14.3-35c0.2-11.6-3.4-23-10.3-32.4c-4.1-5.2-9-9.7-14.4-13.5
			c-9.4-6.3-19.2-12.1-29.2-17.4c-17.5-8.6-33.6-19.7-47.9-32.9c-11.1-11.8-17.3-27.4-17.1-43.6c-0.3-16.8,5.8-33.1,17.1-45.6
			C41.8,86,60.9,78.1,80.7,78.9c9.3-0.1,18.5,1.7,27.1,5.3l9.7,4.4c2.5,1.1,5.3,1.6,8,1.7c3.6,0,7.1-2.9,10.3-8.8h5.7l3.1,66.8h-6
			c-1.6-7.7-3.8-15.3-6.7-22.7c-2.6-6-6-11.5-10.1-16.5c-5.6-7.2-12.5-13.1-20.5-17.5c-7-4-15-6.2-23.1-6.3
			C68,85.3,58.1,89.6,51.1,97.3c-7.5,7.9-11.5,18.4-11.3,29.3c0,9.6,3.6,18.9,10.1,26c8.8,9.2,19.4,16.4,31.2,21.3l30.2,14.1
			c16,6.8,30,17.6,40.5,31.4c9.1,13,13.8,28.6,13.4,44.4c0.6,19-6.4,37.4-19.4,51.2c-14.8,15.7-35.6,24.3-57.1,23.6
			c-13.1-0.1-26.1-2.7-38.3-7.7c-8.4-3.4-13.4-5.3-15.1-5.7c-2.1-0.5-4.4-0.8-6.6-0.7c-6.3-0.2-12.2,3.2-15.1,8.8L9,333.3z"/>
	</g>
</g>
</svg>
